<svg width="89" height="98" viewBox="0 0 89 98" fill="none" xmlns="http://www.w3.org/2000/svg">
<path d="M47.5908 87.4497C47.3286 87.4497 47.0664 87.5379 46.8916 87.7145C46.7168 87.8911 46.5857 88.156 46.5857 88.4208C46.5857 88.6857 46.6731 88.9505 46.8479 89.1271C47.0227 89.3037 47.2849 89.4361 47.5471 89.4361C47.8093 89.4361 48.0715 89.3478 48.2463 89.1713C48.4212 88.9947 48.5523 88.7298 48.5523 88.465C48.596 87.9352 48.1589 87.4497 47.5908 87.4497Z" fill="black"/>
<path d="M72.8065 43.4819C72.5443 43.3495 72.2821 43.3495 72.0636 43.4377C71.8014 43.526 71.6266 43.7026 71.4955 43.9675C71.3644 44.2323 71.3644 44.4972 71.4518 44.7179C71.5392 44.9828 71.714 45.1594 71.9762 45.2918C72.1073 45.3359 72.2384 45.3801 72.4132 45.3801C72.5443 45.3801 72.6317 45.3801 72.7628 45.3359C73.025 45.2477 73.1998 45.0711 73.3309 44.8062C73.462 44.5413 73.462 44.2765 73.3746 44.0558C73.2435 43.7909 73.0687 43.6143 72.8065 43.4819Z" fill="black"/>
<path d="M86.5725 20.8802C86.7036 20.9243 86.8347 20.9685 87.0095 20.9685C87.1406 20.9685 87.228 20.9685 87.3591 20.9243C87.6213 20.836 87.7961 20.6595 87.9272 20.3946C88.0583 20.1297 88.0583 19.8649 87.9709 19.6441C87.8835 19.4234 87.7087 19.2027 87.4465 19.0703C87.1843 18.9378 86.9221 18.9378 86.7036 19.0261C86.4414 19.1144 86.2666 19.291 86.1355 19.5559C86.0044 19.8207 86.0043 20.0856 86.0918 20.3063C86.1355 20.5712 86.3103 20.7919 86.5725 20.8802Z" fill="black"/>
<path d="M43.3955 87.273C43.1333 87.2288 42.8711 87.273 42.6526 87.4496C42.4341 87.6261 42.303 87.8468 42.2593 88.1117C42.1718 88.6414 42.5652 89.1712 43.0896 89.2595C43.1333 89.2595 43.177 89.2595 43.2644 89.2595C43.7451 89.2595 44.1821 88.9063 44.2695 88.4207C44.3132 88.1559 44.2695 87.891 44.0947 87.6703C43.9199 87.4496 43.6577 87.3171 43.3955 87.273Z" fill="black"/>
<path d="M27.3135 81.3576C27.095 81.2251 26.7891 81.181 26.5706 81.2693C26.3083 81.3576 26.0898 81.5341 25.9587 81.7549C25.8276 81.9756 25.7839 82.2846 25.8713 82.5053C25.9587 82.7702 26.1335 82.9909 26.352 83.1233C26.4832 83.2116 26.658 83.2558 26.8328 83.2558C26.9202 83.2558 27.0076 83.2558 27.095 83.2116C27.3572 83.1233 27.5757 82.9468 27.7068 82.726C27.8379 82.5053 27.8816 82.1963 27.7942 81.9756C27.7068 81.7107 27.532 81.49 27.3135 81.3576Z" fill="black"/>
<path d="M12.3675 66.3487C12.4986 66.3928 12.586 66.3928 12.7171 66.3928C12.8482 66.3928 12.9793 66.3487 13.1104 66.3045C13.3726 66.1721 13.5474 65.9955 13.6348 65.7306C13.7222 65.4658 13.7222 65.2009 13.5911 64.9361C13.46 64.6712 13.2852 64.4946 13.023 64.4063C12.7608 64.318 12.4986 64.318 12.2801 64.4505C12.0179 64.5829 11.8431 64.7595 11.7557 65.0243C11.6683 65.2892 11.6683 65.5541 11.7994 65.7748C11.9305 65.9955 12.1053 66.2162 12.3675 66.3487Z" fill="black"/>
<path d="M34.5241 12.1397C34.6989 12.4487 35.0485 12.6694 35.3981 12.6694C35.5729 12.6694 35.704 12.6252 35.8789 12.5369C36.0974 12.4045 36.2722 12.1838 36.3596 11.9189C36.447 11.6541 36.4033 11.3892 36.2722 11.1685C36.1411 10.9478 35.9226 10.7712 35.6603 10.6829C35.3981 10.5946 35.1359 10.6388 34.9174 10.7712C34.6989 10.9036 34.5241 11.1243 34.4367 11.3892C34.3493 11.6541 34.393 11.9189 34.5241 12.1397Z" fill="black"/>
<path d="M79.93 12.5369C79.6677 12.4486 79.4055 12.4928 79.187 12.6252C78.7063 12.8901 78.5315 13.5081 78.7937 13.9937C78.9685 14.3027 79.3181 14.5234 79.6677 14.5234C79.8426 14.5234 79.9737 14.4793 80.1485 14.391C80.6292 14.1261 80.804 13.5081 80.5418 13.0225C80.4107 12.8018 80.1922 12.6252 79.93 12.5369Z" fill="black"/>
<path d="M9.96391 40.7008C10.0513 40.7008 10.1387 40.7449 10.1824 40.7449C10.3572 40.7449 10.532 40.7008 10.7068 40.6125C10.9253 40.4801 11.1002 40.2593 11.1439 39.9945C11.275 39.4648 10.9253 38.8909 10.4009 38.7584C9.8765 38.626 9.30839 38.9792 9.17728 39.5089C9.13358 39.7738 9.17728 40.0386 9.30839 40.2593C9.48319 40.4801 9.7017 40.6566 9.96391 40.7008Z" fill="black"/>
<path d="M18.2235 84.9333C17.7865 84.6685 17.2184 84.7126 16.9124 85.1099C16.7376 85.3306 16.6502 85.5955 16.6939 85.8604C16.7376 86.1252 16.825 86.3901 17.0435 86.5667C17.1747 86.655 17.3058 86.7432 17.4806 86.7874C17.6554 86.9198 17.8302 86.964 18.0487 86.964C18.3546 86.964 18.6168 86.8315 18.8353 86.6108C19.0101 86.3901 19.0975 86.1252 19.0538 85.8604C19.0101 85.5955 18.9227 85.3306 18.7042 85.1982C18.5294 85.0658 18.3983 84.9775 18.2235 84.9333Z" fill="black"/>
<path d="M80.1484 72.0873C79.7113 71.7341 79.0995 71.8224 78.7499 72.2639C78.5751 72.4846 78.5314 72.7494 78.5751 73.0143C78.6188 73.2792 78.7499 73.4999 78.9684 73.6765C79.1432 73.8089 79.3617 73.8972 79.5802 73.8972C79.8862 73.8972 80.1921 73.7648 80.3669 73.4999C80.6728 73.0585 80.5854 72.4404 80.1484 72.0873Z" fill="black"/>
<path d="M9.04627 52.5758C9.08998 52.5758 9.08998 52.5758 9.13368 52.5758C9.39588 52.5758 9.65809 52.4434 9.8329 52.2226C10.0077 52.0019 10.0951 51.7812 10.0951 51.4722C10.0951 51.2073 9.964 50.9425 9.7455 50.7659C9.52699 50.5893 9.30848 50.501 9.00257 50.501C8.74036 50.501 8.47816 50.6334 8.30335 50.8542C8.12854 51.0749 8.04114 51.2956 8.04114 51.6046C8.04114 51.8695 8.17225 52.1343 8.39075 52.3109C8.60926 52.4875 8.82777 52.5758 9.04627 52.5758Z" fill="black"/>
<path d="M1.70438 59.109C1.96659 59.0649 2.18509 58.8883 2.3599 58.6676C2.491 58.4468 2.57841 58.182 2.491 57.9171C2.4473 57.6522 2.2725 57.4315 2.05399 57.2549C1.83548 57.1225 1.57327 57.0342 1.31106 57.1225C1.04886 57.1667 0.830349 57.3432 0.655544 57.564C0.52444 57.7847 0.437037 58.0495 0.52444 58.3144C0.568141 58.5793 0.742947 58.8 0.961454 58.9766C1.13626 59.109 1.31106 59.1531 1.52957 59.1531C1.57327 59.109 1.66068 59.109 1.70438 59.109Z" fill="black"/>
<path d="M30.591 92.3936C30.0666 92.1729 29.4984 92.4377 29.2799 92.9233C29.0614 93.453 29.3236 94.0269 29.8044 94.2476C29.9355 94.2918 30.0666 94.3359 30.1977 94.3359C30.3288 94.3359 30.4599 94.2918 30.591 94.2476C30.8532 94.1594 31.028 93.9386 31.1154 93.7179C31.2028 93.453 31.2028 93.1882 31.1154 92.9233C31.028 92.6585 30.8532 92.4819 30.591 92.3936Z" fill="black"/>
<path d="M82.4646 82.3289C82.2024 82.2406 81.9402 82.2406 81.678 82.3289C81.4158 82.4171 81.241 82.6379 81.1536 82.8586C81.0662 83.1234 81.0662 83.3883 81.1536 83.6532C81.241 83.918 81.4595 84.0946 81.678 84.1829C81.8091 84.227 81.9402 84.2712 82.0713 84.2712C82.4646 84.2712 82.8579 84.0063 82.9891 83.6532C83.0765 83.3883 83.0765 83.1234 82.9891 82.8586C82.9017 82.6379 82.6831 82.4171 82.4646 82.3289Z" fill="black"/>
<path d="M66.0766 92.6586C65.8144 92.5703 65.5522 92.5261 65.3337 92.6586C65.0715 92.7469 64.8967 92.9676 64.7656 93.1883C64.6345 93.409 64.6345 93.718 64.7656 93.9829C64.8967 94.3802 65.29 94.6009 65.6833 94.6009C65.8144 94.6009 65.9455 94.5568 66.0329 94.5126C66.5573 94.2919 66.7758 93.718 66.601 93.1883C66.5136 92.9676 66.2951 92.7469 66.0766 92.6586Z" fill="black"/>
<path d="M78.444 22.0721C78.2692 21.8514 78.007 21.7631 77.7448 21.7189C77.4826 21.7189 77.2204 21.8072 77.0019 21.9838C76.7833 22.1604 76.6959 22.4252 76.6522 22.6901C76.6522 22.8667 76.6959 23.0432 76.7833 23.2198L52.7476 44.718L64.6781 32.1369C64.8092 32.2252 64.984 32.2694 65.2025 32.2694C65.4647 32.2694 65.7269 32.1369 65.9017 31.9604C66.0765 31.7838 66.1639 31.5189 66.1639 31.2541C66.1639 30.9892 66.0328 30.7243 65.858 30.5477C65.6832 30.3712 65.421 30.2829 65.1588 30.2829C64.8966 30.2829 64.6344 30.4153 64.4596 30.5919C64.2848 30.7685 64.1973 31.0333 64.1973 31.2982C64.1973 31.4748 64.2411 31.6514 64.3285 31.8279L57.4673 39.0234C57.511 38.891 57.511 38.7586 57.511 38.582C57.4673 38.3171 57.3362 38.0523 57.1614 37.9198C56.9866 37.7874 56.7681 37.6991 56.5496 37.6991L62.0123 29.8856C62.1871 29.9297 62.3619 29.9739 62.5367 29.9297C62.7989 29.8856 63.0174 29.7532 63.1922 29.5324C63.367 29.3117 63.4107 29.0468 63.367 28.782C63.3233 28.5171 63.1922 28.2964 62.9737 28.1198C62.5367 27.8108 61.8812 27.8991 61.5753 28.3847C61.4005 28.6054 61.3568 28.8703 61.4005 29.1351C61.4442 29.3117 61.4879 29.4883 61.619 29.6207L52.5728 42.555L68.5675 16.2892C68.7423 16.3333 68.9171 16.3333 69.0919 16.2892C69.3541 16.245 69.5726 16.0685 69.7037 15.8477C69.8348 15.627 69.8785 15.3622 69.8348 15.0973C69.7911 14.8324 69.6163 14.6117 69.3978 14.4793C69.1793 14.3468 68.9171 14.3027 68.6549 14.3468C68.3927 14.391 68.1742 14.5676 68.0431 14.7883C67.912 15.009 67.8683 15.2739 67.912 15.5387C67.9557 15.7153 68.0431 15.8919 68.1742 16.0243L51.3491 43.6144L54.1897 37.9198C54.3645 37.8315 54.5393 37.655 54.583 37.4784C54.6704 37.3018 54.6704 37.1252 54.6704 36.9486L59.0406 28.1198C59.4776 28.2081 59.9583 27.9874 60.1331 27.5901C60.2642 27.3694 60.2642 27.0604 60.1768 26.8396C60.0894 26.5748 59.9146 26.3541 59.6961 26.2658C59.2154 26.0009 58.6036 26.2216 58.3414 26.7072C58.2103 26.9279 58.2103 27.2369 58.2977 27.4577C58.3414 27.6342 58.4725 27.7667 58.6036 27.8991L54.4082 36.3748C54.3208 36.2865 54.1897 36.1982 54.1023 36.1541C53.9275 36.0658 53.709 36.0658 53.4905 36.1099L56.8992 27.1486C56.9429 27.1486 56.9866 27.1486 57.074 27.1486C57.2051 27.1486 57.3362 27.1045 57.4236 27.0604C57.6858 26.9721 57.8606 26.7514 57.9481 26.4865C58.0355 26.2216 58.0355 25.9568 57.9481 25.6919C57.8606 25.427 57.6421 25.2505 57.3799 25.1622C57.1177 25.0739 56.8555 25.0739 56.5933 25.1622C56.3311 25.2505 56.1563 25.4712 56.0689 25.736C55.8941 26.1775 56.0689 26.6631 56.4185 26.9279L49.9944 43.7027L58.1229 11.6982C58.2977 11.6982 58.4725 11.6541 58.6473 11.5658C58.8658 11.4333 59.0406 11.2126 59.128 10.9477C59.2154 10.6829 59.1717 10.418 59.0406 10.1973C58.9095 9.97658 58.691 9.8 58.4288 9.71171C58.1666 9.62342 57.9043 9.66757 57.6858 9.8C57.4673 9.93243 57.2925 10.1532 57.2051 10.418C57.1177 10.6829 57.1614 10.9477 57.2925 11.1685C57.3799 11.345 57.511 11.4333 57.6858 11.5216L49.3389 44.2324L52.5728 25.7802C52.7476 25.7802 52.9224 25.736 53.0972 25.6036C53.3157 25.4712 53.4905 25.2063 53.5342 24.9414C53.5779 24.6766 53.5342 24.4117 53.4031 24.191C53.272 23.9703 53.0098 23.7937 52.7476 23.7495C52.4854 23.7054 52.2232 23.7495 52.0047 23.882C51.7862 24.0144 51.6551 24.2793 51.5676 24.5441C51.5239 24.809 51.5676 25.0739 51.6988 25.2946C51.7862 25.427 51.9173 25.5595 52.0921 25.6477L48.7271 44.7622V44.1L49.0767 37.4342C49.1204 37.4342 49.1204 37.4342 49.1641 37.3901C49.4263 37.3018 49.6011 37.0811 49.7322 36.8604C49.8196 36.5955 49.8633 36.3306 49.7322 36.0658C49.6448 35.8009 49.4263 35.6243 49.2078 35.4919L51.1306 1.98649C51.5676 1.8982 51.9173 1.5009 51.9173 1.05946C51.961 0.485586 51.5239 0.0441441 50.9558 0C50.6936 0 50.4314 0.0882883 50.2129 0.264865C49.9944 0.441441 49.907 0.706306 49.8633 0.971171C49.8633 1.23604 49.9507 1.5009 50.1255 1.72162C50.2566 1.85405 50.3877 1.94234 50.5625 2.03063L48.6834 35.5802C48.3337 35.6243 48.0278 35.845 47.8967 36.1982V36.2423L47.3286 25.4712C47.416 25.4712 47.4597 25.4712 47.5471 25.4712C47.8093 25.4712 48.0715 25.3387 48.2463 25.1622C48.4211 24.9856 48.5085 24.7207 48.5085 24.4559C48.5085 23.882 48.0278 23.4847 47.5034 23.4847C47.416 23.4847 47.3286 23.4847 47.2412 23.5288L46.5857 10.5063C46.7605 10.4622 46.8916 10.3739 47.0227 10.1973C47.1975 9.97658 47.2849 9.75586 47.2849 9.49099C47.2849 9.22613 47.1538 8.96126 46.9353 8.78468C46.7168 8.60811 46.4983 8.51982 46.2361 8.51982C45.9739 8.51982 45.7117 8.65225 45.5369 8.87297C45.362 9.09369 45.2746 9.31441 45.2746 9.57928C45.3183 10.0207 45.6243 10.418 46.0613 10.5063L46.7605 23.8378C46.6294 24.0144 46.542 24.2351 46.542 24.5C46.542 24.7649 46.6294 24.9856 46.8479 25.1622L47.853 44.6297L41.2541 2.51622C41.6474 2.33964 41.9096 1.8982 41.8659 1.41261C41.8222 1.14775 41.6911 0.927027 41.4726 0.75045C41.2541 0.573874 40.9919 0.52973 40.7297 0.573874C40.4675 0.618018 40.249 0.75045 40.0742 0.971171C39.8994 1.19189 39.8557 1.45676 39.8994 1.72162C39.9868 2.16306 40.3364 2.51622 40.7734 2.56036L44.0947 23.6171C44.051 23.573 44.0073 23.5288 43.9636 23.5288C43.7451 23.3964 43.4829 23.3081 43.2207 23.3964C43.0459 23.4405 42.8711 23.5288 42.74 23.6613L39.9431 11.3892C40.1179 11.3009 40.249 11.1685 40.3364 11.036C40.4675 10.8153 40.5112 10.5505 40.4675 10.2856C40.4238 10.0207 40.249 9.8 40.0305 9.66757C39.812 9.53514 39.5498 9.49099 39.2876 9.53514C38.7631 9.66757 38.4135 10.1973 38.5446 10.727C38.5883 10.9919 38.7631 11.2126 38.9816 11.345C39.1564 11.4333 39.3313 11.4775 39.5061 11.4775L42.5215 24.5441V24.5883L45.1872 36.1099C44.7502 36.0216 44.3132 36.2423 44.0947 36.6396C44.0947 36.6396 44.0947 36.6396 44.0947 36.6838L40.4238 26.8838C40.7734 26.6189 40.9482 26.1333 40.7734 25.6919C40.686 25.427 40.5112 25.2505 40.249 25.118C39.9868 24.9856 39.7246 24.9856 39.5061 25.0739C39.2439 25.1622 39.069 25.3387 38.9379 25.6036C38.8068 25.8685 38.8068 26.1333 38.8942 26.3982C39.0253 26.7955 39.4187 27.0604 39.8557 27.0604C39.8994 27.0604 39.8994 27.0604 39.9431 27.0604L46.4546 44.5856L27.7941 6.75405C28.1437 6.44504 28.2311 5.95946 28.0563 5.56216C27.7941 5.07658 27.226 4.85586 26.7016 5.12072C26.2208 5.38559 26.0023 5.95946 26.2645 6.48919C26.483 6.88649 26.9201 7.10721 27.3571 7.01892L30.6347 13.6405C30.5036 13.5081 30.3725 13.3757 30.154 13.3315C29.8918 13.2432 29.6295 13.2874 29.411 13.4198C29.1925 13.5523 29.0177 13.773 28.9303 14.0378C28.8429 14.3027 28.8866 14.5676 29.0177 14.7883C29.1925 15.0973 29.5421 15.318 29.8918 15.318C30.0666 15.318 30.1977 15.2739 30.3725 15.1856C30.591 15.0532 30.7658 14.8324 30.8532 14.5676C30.8969 14.391 30.8969 14.2144 30.8532 14.082L45.668 44.1883L24.2543 8.74054C24.3854 8.60811 24.4728 8.43153 24.5165 8.25496C24.5602 7.99009 24.5165 7.72523 24.3854 7.5045C24.2543 7.28378 24.0358 7.10721 23.7736 7.06306C23.5114 7.01892 23.2491 7.06306 23.0306 7.1955C22.8121 7.32793 22.6373 7.54865 22.5936 7.81351C22.5499 8.07838 22.5936 8.34324 22.7247 8.56396C22.8558 8.78468 23.0743 8.96126 23.3365 9.00541C23.5114 9.04955 23.6862 9.04955 23.861 9.00541L44.8813 43.8351L34.6989 29.7532C34.83 29.6207 34.8737 29.4441 34.9174 29.2676C34.9611 29.0027 34.8737 28.7378 34.7426 28.5171C34.5678 28.2964 34.3493 28.164 34.0871 28.1198C33.8249 28.0757 33.5627 28.164 33.3442 28.2964C33.1257 28.473 32.9946 28.6937 32.9509 28.9586C32.9072 29.2234 32.9946 29.4883 33.1257 29.709C33.3879 30.0622 33.8686 30.2387 34.3056 30.0622L44.5754 44.2766L18.005 13.155C18.0924 13.0225 18.1798 12.8459 18.1798 12.6694C18.1798 12.4045 18.1361 12.1396 17.9613 11.9189C17.6117 11.4775 16.9561 11.4333 16.5628 11.8306C16.3443 12.0072 16.2569 12.2721 16.2132 12.5369C16.2132 12.8018 16.2569 13.0667 16.4317 13.2874C16.6065 13.5081 16.8687 13.5964 17.1309 13.6405C17.3058 13.6405 17.4806 13.5964 17.6554 13.5523L39.2876 38.891C39.1128 38.7586 38.8942 38.7144 38.6757 38.7144C38.5446 38.7144 38.3698 38.7586 38.2387 38.8027L21.0204 21.7631C21.1078 21.5865 21.1515 21.4099 21.1515 21.2333C21.1515 20.9685 21.0204 20.7036 20.8456 20.527C20.4523 20.1297 19.7967 20.1297 19.4471 20.527C19.2723 20.7036 19.1412 20.9685 19.1412 21.2333C19.1412 21.4982 19.2723 21.7631 19.4471 21.9396C19.753 22.2486 20.2774 22.2928 20.6708 22.0721L37.8454 39.0234C37.5832 39.4207 37.6269 39.9946 37.9765 40.3477C38.1513 40.5243 38.3698 40.6126 38.632 40.6126C38.8505 40.6126 39.0253 40.5685 39.2001 40.4802L42.2155 43.3937L42.9148 44.0117L44.6628 45.7333L29.6732 34.609C29.7607 34.4324 29.7607 34.2559 29.7169 34.0793C29.6732 33.8144 29.5421 33.5937 29.3236 33.4171C29.1051 33.2405 28.8429 33.1964 28.5807 33.2405C28.3185 33.2847 28.1 33.4171 27.9252 33.6378C27.7504 33.8586 27.7067 34.1234 27.7504 34.3883C27.7941 34.6532 27.9252 34.8739 28.1437 35.0505C28.3185 35.1829 28.4933 35.227 28.6681 35.227C28.7555 35.227 28.7992 35.227 28.8866 35.227C29.0614 35.1829 29.2362 35.1387 29.3673 35.0063L43.4392 45.6892L8.87141 23.9703C8.91511 23.7937 8.91511 23.6171 8.87141 23.4405C8.82771 23.1757 8.6529 22.955 8.4344 22.8225C7.95368 22.5135 7.34186 22.6901 7.07965 23.1315C6.77374 23.6171 6.94855 24.2351 7.38556 24.5C7.60407 24.6324 7.86628 24.6766 8.12849 24.6324C8.30329 24.5883 8.4781 24.5 8.6092 24.3676L41.3415 44.8946L14.5526 30.5919C14.64 30.1505 14.4652 29.6649 14.0718 29.4441C13.8533 29.3117 13.5474 29.3117 13.3289 29.3559C13.0667 29.4441 12.8482 29.6207 12.7608 29.8414C12.6297 30.0622 12.6297 30.3712 12.6734 30.5919C12.7608 30.8568 12.9356 31.0775 13.1541 31.1658C13.3289 31.2541 13.5037 31.2982 13.6785 31.2982C13.9407 31.2982 14.203 31.1658 14.3778 30.9892L42.0844 45.8216L5.55011 29.7973C5.63751 29.3559 5.3753 28.9144 4.98199 28.6937C4.45757 28.473 3.88945 28.6937 3.67094 29.2234C3.58354 29.4883 3.53984 29.7532 3.67094 30.018C3.75835 30.2829 3.97685 30.4595 4.19536 30.5919C4.45757 30.6802 4.71978 30.7243 4.98199 30.5919C5.15679 30.5036 5.2879 30.4153 5.419 30.2829L41.2104 46.0423L12.3675 35.536C12.4112 35.0946 12.149 34.6532 11.712 34.4766C11.1876 34.3 10.6194 34.5649 10.4446 35.0946C10.2698 35.6243 10.532 36.1982 11.0565 36.3748C11.1876 36.4189 11.3624 36.4631 11.4935 36.4189C11.7994 36.3748 12.0616 36.2423 12.2364 35.9775L42.6089 47.0135L25.9586 42.2018C25.9586 41.7604 25.6964 41.3189 25.2594 41.1865C24.9972 41.0982 24.735 41.1423 24.5165 41.2748C24.298 41.4072 24.1232 41.6279 24.0358 41.8928C23.9484 42.1577 23.9921 42.4225 24.1232 42.6432C24.2543 42.864 24.4728 43.0405 24.735 43.1288C24.9972 43.2171 25.2594 43.173 25.4779 43.0405C25.6527 42.9523 25.7838 42.8198 25.8712 42.6874L34.9174 45.336C34.7426 45.4685 34.6115 45.6892 34.5678 45.9099C34.5241 46.1748 34.5678 46.4396 34.6989 46.6604C34.6989 46.7045 34.7426 46.7045 34.7426 46.7486L25.2157 45.336C25.172 44.8946 24.8224 44.4973 24.3854 44.4532C23.9047 44.3649 23.4676 44.6739 23.2928 45.1153L10.532 43.2613C10.532 43.0847 10.4446 42.9081 10.3572 42.7757C10.1824 42.555 9.96395 42.4225 9.70174 42.3784C9.17732 42.2901 8.6529 42.6874 8.5655 43.2171C8.5218 43.482 8.6092 43.7468 8.74031 43.9676C8.91511 44.1883 9.13362 44.3207 9.39583 44.3649C9.83284 44.4532 10.2698 44.1883 10.4446 43.7468L23.2491 45.645C23.2491 45.7775 23.2928 45.9099 23.3802 45.9982L2.01029 43.5261C1.96659 43.0847 1.57328 42.7315 1.13626 42.6432C0.874056 42.5991 0.611848 42.6874 0.39334 42.864C0.174833 43.0405 0.0437294 43.2613 0.0437294 43.5261C2.79499e-05 43.791 0.0874308 44.0559 0.262236 44.2766C0.437041 44.4973 0.655549 44.6297 0.917758 44.6297C1.17997 44.6739 1.44217 44.5856 1.66068 44.409C1.79178 44.2766 1.92289 44.1441 1.96659 43.9676L38.8505 48.1171L10.095 46.3514C10.0076 45.9099 9.61434 45.5568 9.17732 45.5126C8.91511 45.5126 8.6529 45.6009 8.4344 45.7775C8.21589 45.9541 8.12849 46.2189 8.08479 46.4838C8.04108 46.7486 8.17219 47.0135 8.34699 47.2342C8.5218 47.455 8.78401 47.5432 9.04622 47.5874C9.52693 47.6315 9.92024 47.3225 10.0513 46.8811L43.8325 49L36.7966 49.4414C36.7529 49.2649 36.6655 49.1324 36.5344 49C36.3159 48.8234 36.0974 48.7351 35.8351 48.7351C35.5729 48.7351 35.3107 48.8676 35.1359 49.0441C34.9611 49.2649 34.8737 49.4856 34.8737 49.7505C34.8737 49.9712 34.9611 50.1919 35.1359 50.3685L10.3135 53.5027C10.1387 53.0613 9.70174 52.7964 9.26472 52.8847C9.00252 52.9288 8.78401 53.0613 8.6092 53.282C8.4344 53.5027 8.3907 53.7676 8.3907 54.0324C8.4781 54.5622 8.95881 54.9595 9.52693 54.9153C9.78914 54.8712 10.0076 54.7387 10.1824 54.518C10.3135 54.3856 10.3572 54.209 10.4009 54.0324L24.1232 52.3108C23.6425 52.4432 23.3365 52.9288 23.4239 53.4144C23.5113 53.9441 23.9921 54.3414 24.5602 54.2532C24.8224 54.209 25.0409 54.0766 25.2157 53.8559C25.3468 53.6793 25.3905 53.5027 25.3905 53.3261L43.5703 50.1036L10.8816 59.1973C10.969 59.109 11.1002 59.0207 11.1439 58.8883C11.275 58.6676 11.3187 58.4027 11.275 58.1378C11.1439 57.6081 10.6194 57.255 10.0513 57.3874C9.52693 57.5198 9.17732 58.0496 9.30843 58.6234C9.39583 59.0649 9.78914 59.3739 10.2261 59.3739L3.23393 61.3604C3.14653 61.1838 3.01542 61.0514 2.84062 60.9631C2.62211 60.8306 2.3599 60.7865 2.09769 60.8748C1.57328 61.0072 1.26737 61.5811 1.39847 62.1108C1.52958 62.5522 1.92289 62.8613 2.3599 62.8613C2.44731 62.8613 2.53471 62.8613 2.62211 62.8171C2.88432 62.7288 3.10283 62.5964 3.23393 62.3315C3.32133 62.155 3.36504 61.9784 3.36504 61.8018L24.6039 55.8865C24.2106 56.1072 24.0358 56.5928 24.1669 57.0784C24.2543 57.3432 24.4291 57.564 24.6476 57.6523C24.8661 57.7847 25.172 57.7847 25.3905 57.6964C25.8275 57.564 26.0897 57.1225 26.0897 56.6811L35.1359 53.6793C35.0922 53.8559 35.1359 54.0766 35.1796 54.209C35.267 54.4739 35.4855 54.6505 35.704 54.7829C35.7477 54.827 35.8351 54.827 35.8788 54.827L27.1823 59.1532C26.8764 58.8 26.3956 58.7117 26.0023 58.8883C25.5216 59.1532 25.3031 59.727 25.5653 60.2568C25.6964 60.4775 25.8712 60.6982 26.1334 60.7865C26.3956 60.8748 26.6579 60.8748 26.8764 60.7423C27.0949 60.6099 27.3134 60.4333 27.4008 60.1685C27.4445 59.9919 27.4882 59.8153 27.4445 59.6387L43.177 51.8252L43.8325 51.5162L42.5652 52.3108L15.3829 68.8649C15.2518 68.7324 15.077 68.6441 14.9022 68.6C14.64 68.5559 14.3778 68.5559 14.1593 68.7324C13.9407 68.8649 13.7659 69.0856 13.7222 69.3505C13.6785 69.6153 13.6785 69.8802 13.8533 70.1009C13.9844 70.3216 14.203 70.4982 14.4652 70.5423C14.7274 70.5865 14.9896 70.5865 15.2081 70.4099C15.4266 70.2775 15.6014 70.0568 15.6451 69.7919C15.6888 69.6153 15.6888 69.4387 15.6451 69.2622L42.6089 52.8405L29.1488 62.464C29.0177 62.3757 28.8429 62.2874 28.7118 62.2432C28.4496 62.1991 28.1874 62.2432 27.9689 62.4198C27.6193 62.6847 27.4445 63.1703 27.6193 63.5676L10.095 76.1045C9.74544 75.7955 9.26472 75.7955 8.87141 76.0604C8.4344 76.3694 8.30329 77.0315 8.6529 77.473C8.82771 77.6937 9.04622 77.8261 9.30843 77.8703C9.39583 77.8703 9.43953 77.8703 9.52693 77.8703C9.70174 77.8703 9.92024 77.782 10.0513 77.6937C10.2698 77.5171 10.4009 77.2964 10.4446 77.0315C10.4883 76.855 10.4446 76.6784 10.4009 76.5018L27.9252 63.9649C28.2748 64.2739 28.7992 64.318 29.1488 64.0532C29.5421 63.7883 29.6732 63.2586 29.4984 62.8613L44.4006 52.1784L19.5782 74.5595C19.1849 74.2946 18.7042 74.3387 18.3546 74.6478C17.9613 75.0009 17.9176 75.6631 18.2672 76.0604C18.6168 76.4577 19.2723 76.5018 19.6656 76.1487C20.0152 75.8396 20.1026 75.3541 19.8841 74.9126L44.0947 53.0613L21.9381 77.0757C21.7633 76.9874 21.5885 76.9432 21.4137 76.9432C21.1515 76.9432 20.8893 77.0757 20.7145 77.2523C20.5397 77.4288 20.4523 77.6937 20.4523 77.9586C20.4523 78.2234 20.5834 78.4883 20.7582 78.6649C20.9767 78.8414 21.1952 78.9739 21.5011 78.9297C21.7633 78.9297 21.9818 78.7973 22.1566 78.6207C22.4625 78.2676 22.5062 77.782 22.2877 77.3847L45.4932 52.3108L33.956 67.673C33.7812 67.5847 33.6064 67.5847 33.4316 67.5847C33.1694 67.6288 32.9509 67.7613 32.776 67.982C32.6012 68.2027 32.5575 68.4676 32.6012 68.7324C32.6449 68.9973 32.776 69.218 32.9946 69.3946C33.1694 69.527 33.3879 69.6153 33.6064 69.6153C33.9123 69.6153 34.2182 69.4829 34.393 69.218C34.5678 68.9973 34.6115 68.7324 34.5678 68.4676C34.5241 68.291 34.4804 68.1144 34.3493 67.982L45.5369 53.0171L41.8222 59.2856C41.3852 59.1532 40.9045 59.3297 40.686 59.727C40.5549 59.9478 40.5112 60.2126 40.5549 60.4775C40.5986 60.7423 40.7734 60.9631 40.9919 61.0955C41.1667 61.1838 41.3415 61.2279 41.5163 61.2279C41.6037 61.2279 41.6474 61.2279 41.7348 61.1838C41.997 61.1396 42.2155 60.9631 42.3467 60.7423C42.5652 60.345 42.5215 59.8153 42.2155 59.5063L46.3672 52.5757L32.0331 83.918C31.5961 83.8297 31.1154 84.0504 30.9406 84.4919C30.8095 84.7568 30.8095 85.0216 30.8969 85.2423C30.9843 85.5072 31.1591 85.6838 31.4213 85.8162C31.5524 85.8604 31.7272 85.9045 31.8583 85.9045C32.2516 85.9045 32.6012 85.6838 32.7323 85.3306C32.9072 84.8892 32.8197 84.4036 32.4701 84.1387L46.8479 52.7081L44.488 60.6099C44.1384 60.6982 43.8325 60.9631 43.7451 61.3162C43.6577 61.6694 43.7451 62.0225 44.0073 62.2874L41.2978 71.4252C40.8608 71.4252 40.4238 71.6901 40.2927 72.1315C40.2053 72.3964 40.249 72.6613 40.3801 72.882C40.5112 73.1027 40.7297 73.2793 40.9919 73.3676C41.2541 73.4559 41.5163 73.4117 41.7348 73.2793C41.9533 73.1469 42.1281 72.9261 42.2155 72.6613C42.3467 72.2198 42.1718 71.7342 41.7785 71.5135L44.4443 62.464C44.7065 62.5523 44.9687 62.5081 45.1872 62.3757C45.2309 62.3757 45.2746 62.3315 45.2746 62.2874L40.3801 86.655C40.2053 86.655 40.0305 86.6991 39.8557 86.8315C39.6372 86.964 39.4624 87.2288 39.4187 87.4937C39.375 87.7586 39.4187 88.0234 39.5498 88.2441C39.6809 88.4649 39.9431 88.6414 40.2053 88.6856C40.4675 88.7297 40.2053 89.436 40.0742 88.6856C40.2927 88.5532 40.4675 88.2883 40.5112 88.0234C40.5986 87.582 40.3801 87.0964 39.9868 86.9198L46.6731 53.7234L46.4983 55.6216L45.9302 61.0955C45.7554 61.1396 45.5806 61.1838 45.4495 61.3162C45.2309 61.4928 45.0998 61.7135 45.0998 61.9784C45.0561 62.2432 45.1435 62.5081 45.3183 62.7288C45.4932 62.9496 45.7117 63.0378 45.9739 63.082H46.0176C46.5857 63.1261 47.0664 62.7288 47.1101 62.1991C47.1538 61.7577 46.8916 61.3162 46.4546 61.1396L47.1975 54.209L47.3286 72.573C46.8916 72.7054 46.5857 73.1027 46.5857 73.5442C46.5857 73.809 46.6731 74.0739 46.8916 74.2505C47.0664 74.427 47.3286 74.5595 47.5908 74.5595C47.853 74.5595 48.1152 74.4712 48.29 74.2505C48.4648 74.0739 48.596 73.809 48.596 73.5442C48.596 73.1027 48.29 72.6613 47.853 72.573L47.7219 55.6216L50.6062 95.9694C50.4314 96.0135 50.3003 96.146 50.1692 96.2784C49.9944 96.4991 49.907 96.764 49.907 97.0288C49.9507 97.5586 50.3877 97.9559 50.9121 97.9559C50.9558 97.9559 50.9558 97.9559 50.9995 97.9559C51.2617 97.9559 51.5239 97.8234 51.6988 97.6027C51.8736 97.382 51.961 97.1171 51.961 96.8522C51.961 96.5874 51.8299 96.3225 51.6113 96.146C51.4802 96.0135 51.3054 95.9252 51.1306 95.9252L48.29 56.4604L52.7476 87.2288C52.3543 87.4054 52.0921 87.8468 52.1358 88.2883C52.1795 88.5532 52.3106 88.7739 52.5291 88.9505C52.7476 89.127 53.0098 89.1712 53.272 89.127C53.5342 89.0829 53.7527 88.9505 53.9275 88.7297C54.1023 88.509 54.146 88.2441 54.1023 87.9793C54.0149 87.5378 53.6653 87.1847 53.2283 87.1405L48.3337 53.4144L52.9661 71.7342C52.7476 71.646 52.5291 71.6018 52.3106 71.646C52.0484 71.6901 51.8299 71.8667 51.6988 72.0874C51.5676 72.3081 51.5239 72.573 51.5676 72.8378C51.6113 73.1027 51.7862 73.3234 52.0047 73.4559C52.2232 73.5883 52.4854 73.6324 52.7476 73.5883C53.0098 73.5441 53.1846 73.4117 53.3594 73.191L56.7244 86.4342C56.3311 86.655 56.1126 87.1405 56.2437 87.582C56.3748 88.0234 56.7244 88.3324 57.1614 88.3324C57.2488 88.3324 57.3362 88.3324 57.4236 88.2883C57.6858 88.2 57.9044 88.0676 58.0355 87.8468C58.1666 87.6261 58.2103 87.3613 58.1229 87.0964C57.9917 86.655 57.5984 86.3459 57.1614 86.3459L49.6885 56.8135L54.3645 71.4694C54.2334 71.5577 54.1023 71.6901 54.0149 71.8667C53.8838 72.0874 53.8838 72.3964 53.9712 72.6171C54.1023 73.0144 54.4956 73.3234 54.9327 73.3234C55.0201 73.3234 55.1512 73.3234 55.2386 73.2793C55.763 73.1027 56.0689 72.5288 55.8941 71.9991C55.763 71.5577 55.326 71.2928 54.889 71.2928L49.1641 53.4586L52.0484 60.2126C51.6987 60.4775 51.5676 61.0072 51.7425 61.4045C51.8299 61.6694 52.0484 61.8459 52.3106 61.9342C52.5728 62.0225 52.835 62.0225 53.0972 61.9342C53.3594 61.8459 53.5342 61.6252 53.6216 61.3604C53.709 61.0955 53.709 60.8306 53.6216 60.6099C53.5342 60.345 53.3157 60.1685 53.0535 60.0802C52.8787 59.9919 52.7039 59.9919 52.5291 60.036L49.6448 53.282L58.9095 69.6153C58.6036 69.9243 58.5162 70.4541 58.7347 70.8513C58.9095 71.1604 59.2591 71.3811 59.6087 71.3811C59.7835 71.3811 59.9583 71.3369 60.0894 71.2486C60.5701 70.9838 60.7449 70.3658 60.439 69.8802C60.3079 69.6595 60.0894 69.4829 59.8272 69.3946C59.6524 69.3504 59.4776 69.3504 59.3028 69.3946L51.0432 54.827L68.4801 81.2252C68.1742 81.5784 68.1305 82.064 68.3927 82.4613C68.5675 82.7261 68.8734 82.9027 69.223 82.9027C69.4415 82.9027 69.6163 82.8586 69.7911 82.7261C70.2281 82.4171 70.3592 81.7991 70.0533 81.3135C69.7911 80.9162 69.3104 80.7838 68.8734 80.9162L50.6936 52.2225L55.9815 58.4468C55.8941 58.5793 55.8067 58.7559 55.8067 58.9324C55.8067 59.1973 55.8504 59.4622 56.0252 59.6829C56.2 59.9036 56.4622 59.9919 56.7244 60.036C56.9866 60.036 57.2488 59.9478 57.4673 59.8153C57.6858 59.6387 57.7732 59.3739 57.8169 59.109C57.8169 58.8441 57.7732 58.5793 57.5984 58.3586C57.2925 58.0054 56.8118 57.9171 56.4185 58.0937L51.5239 52.355L65.2899 65.3333C65.0714 65.7306 65.1588 66.2604 65.4647 66.5694C65.858 66.9225 66.5135 66.9225 66.8631 66.5252C67.0379 66.3486 67.1253 66.0838 67.1253 65.8189C67.1253 65.5541 66.9942 65.2892 66.8194 65.1126C66.6446 64.936 66.3824 64.8477 66.1202 64.8477C65.9454 64.8477 65.7706 64.8919 65.5958 65.0243L51.0869 51.3396L58.0792 56.0189C57.9043 56.4604 58.0354 56.9901 58.4288 57.255C58.6036 57.3874 58.7784 57.4315 58.9969 57.4315C59.3465 57.4315 59.6524 57.255 59.8272 56.9901C59.9583 56.7694 60.0457 56.5045 59.9583 56.2396C59.9146 56.0189 59.7835 55.7982 59.6087 55.6216C59.9146 55.6658 60.2205 55.5775 60.4827 55.4009L69.223 59.6829C69.1356 60.1243 69.3541 60.6099 69.7474 60.7865C69.9659 60.9189 70.2718 60.9189 70.4903 60.8306C70.7526 60.7423 70.9274 60.5658 71.0585 60.3009C71.277 59.8153 71.1022 59.1973 70.5778 58.9324C70.1844 58.7117 69.66 58.8441 69.3978 59.1973L60.7012 54.9595C60.876 54.4739 60.6575 53.9441 60.1768 53.7234C59.6961 53.5027 59.1717 53.6793 58.9095 54.0766L50.9995 50.1919L70.4903 56.0631C70.4903 56.2396 70.5341 56.4162 70.6215 56.5487C70.7526 56.7694 70.9711 56.9459 71.1896 57.0342C71.4518 57.1225 71.714 57.0784 71.9325 56.9459C72.151 56.8135 72.3258 56.5928 72.4132 56.3721C72.5006 56.1072 72.4569 55.8423 72.3258 55.6216C72.1947 55.4009 71.9762 55.2243 71.7577 55.136C71.3207 55.0036 70.84 55.1802 70.5778 55.5775L51.6113 49.8387L60.0894 51.1189C60.0894 51.2955 60.1768 51.4721 60.2642 51.6045C60.439 51.8252 60.6575 51.9577 60.9197 52.0018C61.1819 52.0459 61.4442 51.9577 61.6627 51.8252C61.7938 51.7369 61.9249 51.6045 61.9686 51.4279L71.2333 52.7964C71.277 53.2378 71.6266 53.6351 72.0636 53.6793C72.3258 53.7234 72.588 53.6351 72.8065 53.5027C73.025 53.3261 73.1561 53.1054 73.1998 52.8405C73.2435 52.5757 73.1561 52.3108 73.025 52.0901C72.8502 51.8694 72.6317 51.7369 72.3695 51.6928C71.9325 51.6045 71.4955 51.8694 71.3207 52.3108L62.056 50.9423C62.056 50.7658 61.9686 50.545 61.8812 50.4126C61.7064 50.1919 61.4879 50.0595 61.2257 50.0153C60.7886 49.927 60.3516 50.1919 60.1768 50.6333L51.0432 49.2649L53.272 49.2207H60.3516C60.3953 49.3532 60.4827 49.4414 60.5701 49.5297C60.7449 49.7063 61.0071 49.8387 61.2694 49.8387C61.6627 49.8387 62.0123 49.5739 62.1871 49.2207H71.8014C71.8451 49.3973 71.9325 49.5739 72.0636 49.7063C72.4569 50.1036 73.1124 50.1036 73.4621 49.7063C73.6369 49.5297 73.768 49.2649 73.768 49C73.768 48.7351 73.6806 48.4703 73.4621 48.2937C73.2872 48.1171 73.025 47.9847 72.7628 47.9847C72.5006 47.9847 72.2384 48.073 72.0636 48.2937C71.9325 48.4261 71.8451 48.6027 71.8014 48.7793H62.2745C62.2308 48.5586 62.1434 48.3378 61.9686 48.1613C61.8375 48.0288 61.619 47.8964 61.4005 47.8964C61.7938 47.7198 62.0123 47.2784 61.9686 46.8369C61.9249 46.5721 61.7938 46.3514 61.5753 46.1748C61.3568 45.9982 61.0945 45.9541 60.8323 45.9982C60.3953 46.0865 60.0457 46.4396 60.002 46.8811L51.0869 48.2937L54.2771 47.0577L59.9583 44.9387C60.2205 45.2919 60.7012 45.4243 61.0946 45.2477C61.3568 45.1595 61.5316 44.9829 61.6627 44.718C61.7064 44.5856 61.7501 44.409 61.7501 44.2324L70.2718 41.0541C70.3592 41.1865 70.4903 41.3189 70.6652 41.4072C70.9274 41.5396 71.1896 41.5396 71.4518 41.4514C71.714 41.3631 71.8888 41.1865 72.0199 40.9216C72.151 40.6568 72.151 40.3919 72.0636 40.1712C71.8888 39.6414 71.277 39.3766 70.7963 39.5532C70.534 39.6414 70.3592 39.818 70.2281 40.0829C70.1407 40.2595 70.1407 40.436 70.1407 40.6126L61.619 43.7468C61.5316 43.5703 61.3568 43.4378 61.182 43.3495C60.9634 43.2613 60.7449 43.2171 60.5264 43.3054C60.6575 43.173 60.7449 43.0405 60.7886 42.864C60.876 42.5991 60.8323 42.3342 60.7012 42.1135C60.5701 41.8928 60.3516 41.7162 60.0894 41.6279C59.8272 41.5396 59.565 41.5838 59.3465 41.7162C58.9532 41.9369 58.7347 42.4225 58.8658 42.864L51.5676 46.9252H51.5239L67.0379 34.9622C67.3876 35.227 67.912 35.227 68.2616 34.9622C68.4801 34.7856 68.6112 34.5649 68.6549 34.3C68.6986 34.0351 68.6112 33.7703 68.4364 33.5495C68.2616 33.3288 68.0431 33.1964 67.7809 33.1523C67.5187 33.1081 67.2564 33.1964 67.0379 33.3288C66.6883 33.5937 66.5572 34.1234 66.732 34.5207L52.835 45.2477L77.133 23.5288C77.4826 23.7937 78.007 23.7495 78.3566 23.4405C78.7499 23.1315 78.7936 22.4694 78.444 22.0721ZM59.7835 44.409L51.655 47.455L59.0843 43.3054C59.2154 43.4378 59.3465 43.5261 59.5213 43.5703C59.6087 43.5703 59.6524 43.6144 59.7398 43.6144C59.8272 43.6144 59.9583 43.6144 60.0457 43.5703C59.8709 43.791 59.7398 44.1 59.7835 44.409ZM24.9098 46.1306C24.9972 46.0423 25.0409 45.9541 25.0846 45.8658L33.1257 47.0577L24.9098 46.1306ZM36.447 45.7775L41.3415 47.1901L36.4907 46.0865C36.4907 45.9982 36.447 45.9099 36.447 45.7775ZM36.3596 46.6162L41.2104 47.7198L36.0536 46.9694C36.1848 46.8369 36.3159 46.7486 36.3596 46.6162ZM42.5215 42.9523L39.5935 40.0829C39.6809 39.9505 39.6809 39.7739 39.6809 39.6414C39.6809 39.509 39.6372 39.3324 39.5935 39.2L43.9636 44.3207L42.5215 42.9523ZM46.6731 55.4892L46.8916 54.6946L45.5806 61.2279C45.4932 61.0955 45.362 60.9631 45.2309 60.8748L46.6731 55.4892ZM45.4058 37.964C45.4495 37.964 45.4495 37.9198 45.4932 37.8757L45.9739 39.9505L45.4058 37.964ZM45.8428 37.3459C45.9302 37.0369 45.8428 36.7279 45.6243 36.4631L43.0896 25.3387C43.2644 25.3829 43.3955 25.3829 43.5703 25.3829C43.8325 25.3387 44.051 25.1622 44.2258 24.9414C44.2258 24.8973 44.2695 24.8973 44.2695 24.8532L47.0227 42.5108L45.8428 37.3459ZM44.8376 38.0964C44.8813 38.0964 44.8813 38.0964 44.925 38.0964L46.1924 42.6432L44.488 38.0081C44.5754 38.0523 44.7065 38.0964 44.8376 38.0964ZM52.835 42.9964L55.6319 39.0234C55.6756 39.1117 55.7193 39.2 55.763 39.2883L52.835 42.9964ZM56.1126 39.5973C56.2437 39.6414 56.4185 39.6856 56.5496 39.6856C56.5933 39.6856 56.5933 39.6856 56.637 39.6856C56.7244 39.6856 56.8118 39.6414 56.8555 39.6414L52.3543 44.409L56.1126 39.5973ZM53.1846 38.7586L53.5342 38.0081H53.5779L53.1846 38.7586ZM53.0535 37.7874L50.7373 43.0847L52.835 37.5667C52.9224 37.655 52.9661 37.7432 53.0535 37.7874ZM25.2594 52.8847C25.0846 52.5315 24.7787 52.3108 24.3854 52.3108L38.9379 50.4568L25.2594 52.8847ZM41.1667 49.6622L36.7092 50.236C36.7529 50.1478 36.7966 50.0595 36.7966 49.9712L41.1667 49.6622ZM42.5652 51.6045L37.1025 54.2973C37.1025 54.2973 37.1025 54.2973 37.1025 54.2532C37.1899 54.0766 37.1899 53.9 37.1899 53.7234L42.5652 51.6045ZM36.9714 53.282C36.9277 53.2378 36.884 53.1937 36.8403 53.1496L39.812 52.1784L36.9714 53.282ZM36.0536 52.8847C35.9662 52.8847 35.8788 52.9288 35.7914 52.9288C35.7477 52.9288 35.7477 52.973 35.704 52.973L25.9586 56.2396C25.7838 55.9306 25.4342 55.7541 25.1283 55.7541L38.7631 51.9577L36.0536 52.8847ZM58.7784 55.3568C58.6036 55.4009 58.4725 55.445 58.3414 55.5775L51.961 51.3396L51.3491 50.8982L58.7784 54.518C58.7784 54.6505 58.7784 54.7829 58.8221 54.9153C58.8658 55.0919 58.9969 55.2685 59.128 55.3568C59.0406 55.3568 58.9095 55.3568 58.7784 55.3568ZM60.3516 48.5586L51.961 48.6468L60.1331 47.2784C60.2205 47.455 60.3079 47.5874 60.4827 47.6757C60.6138 47.764 60.7449 47.8523 60.9197 47.8523C60.8323 47.8964 60.7449 47.9847 60.6575 48.073C60.4827 48.2495 60.3953 48.382 60.3516 48.5586ZM48.4648 37.4342C48.5085 37.4784 48.596 37.4784 48.6397 37.4784L48.29 43.5261L47.9404 36.9486C48.0715 37.1694 48.2463 37.3459 48.4648 37.4342Z" fill="black"/>
</svg>
