<svg width="82" height="90" viewBox="0 0 82 90" fill="none" xmlns="http://www.w3.org/2000/svg">
<path d="M41 46.684C53.048 46.684 62.848 33.897 62.848 21.85C62.848 9.803 53.048 0 41 0C28.952 0 19.151 9.803 19.151 21.85C19.153 33.896 28.953 46.684 41 46.684Z" fill="black"/>
<path d="M57.402 46.908C53.164 50.137 47.877 52.058 42.15 52.058H39.85C34.122 52.058 28.834 50.136 24.597 46.908C10.759 49.145 0.192017 61.139 0.192017 75.607C0.192017 83.555 18.462 90 41 90C63.537 90 81.808 83.555 81.808 75.607C81.808 61.139 71.24 49.145 57.402 46.908Z" fill="black"/>
</svg>
