<svg width="90" height="90" viewBox="0 0 90 90" fill="none" xmlns="http://www.w3.org/2000/svg">
<path d="M45 89.793C20.293 89.793 0.207031 69.711 0.207031 45C0.207031 20.293 20.293 0.207031 45 0.207031C69.707 0.207031 89.793 20.289 89.793 45C89.793 69.707 69.711 89.793 45 89.793ZM45 6.45703C23.75 6.45703 6.45703 23.75 6.45703 45C6.45703 66.25 23.75 83.543 45 83.543C66.25 83.543 83.543 66.25 83.543 45C83.543 23.75 66.25 6.45703 45 6.45703Z" fill="black"/>
<path d="M35 68.957C33.293 68.957 31.582 68.5 30.043 67.582C27.043 65.789 25.211 62.664 25.211 59.164V30.832C25.211 27.332 27.004 24.164 30.043 22.414C33.043 20.621 36.668 20.582 39.75 22.289L65.25 36.457C68.418 38.207 70.293 41.414 70.293 45C70.293 48.582 68.418 51.793 65.25 53.543L39.75 67.711C38.25 68.5431 36.625 68.961 35 68.961V68.957ZM35 27.293C34.168 27.293 33.5 27.586 33.207 27.793C32.6641 28.086 31.457 29 31.457 30.836V59.168C31.457 61 32.664 61.918 33.207 62.211C33.707 62.504 35.125 63.129 36.707 62.254L62.207 48.086C63.832 47.168 64.039 45.629 64.039 45.004C64.039 44.379 63.8711 42.836 62.207 41.922L36.707 27.754C36.082 27.422 35.539 27.297 35 27.297V27.293Z" fill="black"/>
</svg>
